<svg width="120" height="37" viewBox="0 0 120 37" fill="none" xmlns="http://www.w3.org/2000/svg">
<path d="M105.752 22.5941C105.752 24.3242 105.786 25.7491 105.853 26.8686C105.921 27.9542 106.057 28.8193 106.26 29.4638C106.464 30.1084 106.718 30.5494 107.024 30.7869C107.363 31.0244 107.787 31.1431 108.296 31.1431C108.805 31.1431 109.229 31.0244 109.568 30.7869C109.907 30.5494 110.162 30.1084 110.331 29.4638C110.535 28.8193 110.671 27.9542 110.739 26.8686C110.806 25.7491 110.84 24.3242 110.84 22.5941C110.84 20.8639 110.806 19.4391 110.739 18.3195C110.671 17.2 110.535 16.318 110.331 15.6734C110.162 15.0288 109.907 14.5878 109.568 14.3503C109.229 14.1129 108.805 13.9941 108.296 13.9941C107.787 13.9941 107.363 14.1129 107.024 14.3503C106.718 14.5878 106.464 15.0288 106.26 15.6734C106.057 16.318 105.921 17.2 105.853 18.3195C105.786 19.4391 105.752 20.8639 105.752 22.5941ZM120 22.5941C120 24.3921 119.864 26.1562 119.593 27.8863C119.355 29.6165 118.83 31.1601 118.015 32.5171C117.201 33.8401 116.014 34.9088 114.453 35.723C112.927 36.5032 110.874 36.8934 108.296 36.8934C105.616 36.8934 103.496 36.5372 101.935 35.8247C100.375 35.0784 99.2041 34.0607 98.4238 32.7715C97.6436 31.4484 97.1347 29.9218 96.8972 28.1917C96.6937 26.4276 96.5919 24.5447 96.5919 22.5432C96.5919 20.7452 96.7106 18.9811 96.9481 17.2509C97.2195 15.5207 97.7623 13.9772 98.5765 12.6202C99.3907 11.2632 100.561 10.1776 102.088 9.36339C103.648 8.51527 105.718 8.09121 108.296 8.09121C110.976 8.09121 113.096 8.48134 114.657 9.26161C116.217 10.008 117.388 11.0427 118.168 12.3657C118.948 13.6888 119.44 15.2324 119.644 16.9965C119.881 18.7266 120 20.5925 120 22.5941Z" fill="#1C1C1C"/>
<path d="M72.4952 0H81.6549V11.8567H81.7567C82.5369 10.398 83.5038 9.41414 84.6572 8.90526C85.8446 8.36247 86.9981 8.09107 88.1176 8.09107C89.0675 8.09107 89.9665 8.20981 90.8146 8.44728C91.6966 8.68475 92.4599 9.09185 93.1045 9.66857C93.783 10.2453 94.3089 11.0256 94.682 12.0094C95.0891 12.9593 95.2927 14.1466 95.2927 15.5715V36.3335H86.133V18.1667C86.133 17.0133 85.9634 16.1821 85.6241 15.6733C85.2849 15.1644 84.7081 14.91 83.8939 14.91C83.0797 14.91 82.503 15.1644 82.1638 15.6733C81.8245 16.1821 81.6549 17.0133 81.6549 18.1667V36.3335H72.4952V0Z" fill="#1C1C1C"/>
<path d="M61.0551 0H70.2148V36.3335H61.0551V0Z" fill="#1C1C1C"/>
<path d="M45.331 22.5941C45.331 24.3242 45.3649 25.7491 45.4327 26.8686C45.5006 27.9542 45.6363 28.8193 45.8398 29.4638C46.0434 30.1084 46.2978 30.5494 46.6032 30.7869C46.9424 31.0244 47.3665 31.1431 47.8753 31.1431C48.3842 31.1431 48.8083 31.0244 49.1475 30.7869C49.4868 30.5494 49.7412 30.1084 49.9108 29.4638C50.1144 28.8193 50.2501 27.9542 50.3179 26.8686C50.3858 25.7491 50.4197 24.3242 50.4197 22.5941C50.4197 20.8639 50.3858 19.4391 50.3179 18.3195C50.2501 17.2 50.1144 16.318 49.9108 15.6734C49.7412 15.0288 49.4868 14.5878 49.1475 14.3503C48.8083 14.1129 48.3842 13.9941 47.8753 13.9941C47.3665 13.9941 46.9424 14.1129 46.6032 14.3503C46.2978 14.5878 46.0434 15.0288 45.8398 15.6734C45.6363 16.318 45.5006 17.2 45.4327 18.3195C45.3649 19.4391 45.331 20.8639 45.331 22.5941ZM59.5794 22.5941C59.5794 24.3921 59.4437 26.1562 59.1723 27.8863C58.9348 29.6165 58.409 31.1601 57.5948 32.5171C56.7806 33.8401 55.5932 34.9088 54.0327 35.723C52.5061 36.5032 50.4536 36.8934 47.8753 36.8934C45.1953 36.8934 43.075 36.5372 41.5144 35.8247C39.9539 35.0784 38.7835 34.0607 38.0032 32.7715C37.2229 31.4484 36.7141 29.9218 36.4766 28.1917C36.273 26.4276 36.1713 24.5447 36.1713 22.5432C36.1713 20.7452 36.29 18.9811 36.5275 17.2509C36.7989 15.5207 37.3417 13.9772 38.1559 12.6202C38.9701 11.2632 40.1405 10.1776 41.6671 9.36339C43.2276 8.51527 45.297 8.09121 47.8753 8.09121C50.5554 8.09121 52.6757 8.48134 54.2362 9.26161C55.7968 10.008 56.9672 11.0427 57.7475 12.3657C58.5277 13.6888 59.0196 15.2324 59.2232 16.9965C59.4607 18.7266 59.5794 20.5925 59.5794 22.5941Z" fill="#1C1C1C"/>
<path d="M0 0H13.536L17.3525 21.5253H17.4543L21.2709 0H34.8069V36.3335H25.9525V9.26148H25.8507L20.8129 36.3335H13.994L8.95615 9.26148H8.85438V36.3335H0V0Z" fill="#1C1C1C"/>
</svg>
